<?xml version="1.0" encoding="utf-8"?>
<!-- Generator: Adobe Illustrator 18.1.0, SVG Export Plug-In . SVG Version: 6.00 Build 0)  -->
<!DOCTYPE svg PUBLIC "-//W3C//DTD SVG 1.1//EN" "http://www.w3.org/Graphics/SVG/1.1/DTD/svg11.dtd">
<svg version="1.1" id="Laag_1" xmlns="http://www.w3.org/2000/svg" xmlns:xlink="http://www.w3.org/1999/xlink" x="0px" y="0px"
	 viewBox="0 0 208.2 72.2" enable-background="new 0 0 208.2 72.2" xml:space="preserve">
<g>
	<path fill="#F8971D" d="M104.4,28.5c0-4.6,4.6-8.8,13.8-10.5v-7.3c0-5.9-4.8-10.7-10.7-10.7H10.7C4.8,0,0,4.8,0,10.7v33.8
		c0,5.9,4.8,10.7,10.7,10.7h96.8c5.9,0,10.7-4.8,10.7-10.7v-6.1C110.5,37.5,104.4,33.1,104.4,28.5z"/>
	<g>
		<path fill="#455560" d="M62,38.7c0,1,4.8,2.1,9.7,2.1c4.8,0,9.7-1.1,9.7-2.1V13h9.4v25.7c0,2.3-8.5,4.2-19.1,4.2
			c-5.7,0-10.8-0.6-14.3-1.4c-3.7,0.8-8.8,1.4-14.5,1.4c-10.6,0-19.1-1.9-19.1-4.2V13h9.4v25.7c0,1,4.8,2.1,9.7,2.1
			c4.8,0,9.7-1.1,9.7-2.1V13H62V38.7z"/>
		<g>
			<path fill="#455560" d="M206.4,39.3l-0.9,4.1c-0.4,0-1.1,0-1.9,0c-0.9,0-1.6,0-2.2,0c-6.5,0-12.5-0.2-18.2-0.7
				c-5.6-0.5-10.7-1.2-15.1-2.1c-6.1-1.3-10.8-3-14.3-5.2c-3.4-2.2-5.1-4.5-5.1-7.2c0-2.3,1.6-4.5,4.7-6.5c3.1-2,7.2-3.6,12.2-4.8
				c4.5-1.1,9.9-2,16.2-2.6c6.3-0.6,12.8-0.9,19.5-0.9c0.6,0,1.1,0,1.7,0c0.6,0,1.1,0,1.4,0l0.6,4.1c-0.3,0-0.7,0-1.2,0
				c-0.4,0-0.8,0-1.2,0c-5.6,0-10.3,0.1-14.3,0.4c-3.9,0.3-7.7,0.7-11.5,1.3c-5,0.8-8.9,2-11.8,3.7c-2.9,1.7-4.4,3.5-4.4,5.4
				c0,2.3,1.4,4.2,4.1,5.7c2.7,1.5,6.4,2.7,10.9,3.6c3.5,0.6,7.5,1.1,11.9,1.4c4.4,0.3,9.1,0.4,14,0.4c0.8,0,1.7,0,2.7,0
				C205.4,39.3,206.1,39.3,206.4,39.3z"/>
		</g>
		<g>
			<path fill="#455560" d="M151.7,39l-0.9,4.1c-0.4,0-1.1,0-1.9,0c-0.9,0-1.6,0-2.2,0c-6.5,0-12.5-0.2-18.2-0.7
				c-5.6-0.5-10.7-1.2-15.1-2.1c-6.1-1.3-10.8-3-14.3-5.2c-3.4-2.2-5.1-4.5-5.1-7.2c0-2.3,1.5-4.5,4.7-6.5c3.1-2,7.2-3.6,12.2-4.8
				c4.5-1.1,9.9-2,16.2-2.6c6.3-0.6,12.8-0.9,19.5-0.9c0.6,0,1.1,0,1.7,0c0.6,0,1.1,0,1.4,0l0.6,4.1c-0.3,0-0.7,0-1.2,0
				c-0.4,0-0.8,0-1.2,0c-5.6,0-10.3,0.1-14.3,0.4c-3.9,0.3-7.8,0.7-11.5,1.3c-5,0.8-8.9,2-11.8,3.7c-2.9,1.7-4.4,3.5-4.4,5.4
				c0,2.3,1.4,4.2,4.1,5.7c2.7,1.5,6.4,2.7,10.9,3.6c3.5,0.6,7.5,1.1,11.9,1.4c4.4,0.3,9.1,0.4,14,0.4c0.8,0,1.7,0,2.7,0
				C150.7,39,151.4,39,151.7,39z"/>
		</g>
	</g>
	<g>
		<path fill="#455560" d="M6.3,65.9c-0.3-0.9-1-1.3-1.9-1.3c-1,0-1.6,0.5-1.6,1.2c0,0.8,0.8,1,2.2,1.3c0.8,0.2,1.5,0.4,2.2,0.9
			c0.5,0.4,0.8,1,0.8,1.7c0,1.5-1.3,2.6-3.5,2.6c-1.8,0-3.2-1-3.6-2.6l1.5-0.3c0.3,1,1.1,1.6,2.3,1.6c1,0,1.7-0.6,1.7-1.2
			c0-0.9-0.7-1.1-2.1-1.5c-0.9-0.2-1.7-0.4-2.4-1c-0.4-0.4-0.6-0.9-0.6-1.5c0-1.5,1.3-2.6,3.3-2.6c1.6,0,2.8,0.8,3.3,2.2L6.3,65.9z"
			/>
		<path fill="#455560" d="M14.1,63.6l2.3,6.4l2.2-6.4h2.2v8.6h-1.5l0-7.2l-2.5,7.2h-1.1L13.2,65l0,7.3h-1.3v-8.6H14.1z"/>
		<path fill="#455560" d="M28.9,63.6l2.9,8.6h-1.6l-0.7-2.3h-3l-0.7,2.3h-1.4l2.9-8.6H28.9z M26.7,68.8H29l-1.2-3.7L26.7,68.8z"/>
		<path fill="#455560" d="M38.7,63.6c2.2,0,3.3,0.8,3.3,2.5c0,1.1-0.5,1.9-1.6,2.2l1.7,3.9h-1.7l-1.6-3.6h-2v3.6h-1.6v-8.6H38.7z
			 M36.8,67.4h1.7c1.2,0,1.8-0.5,1.8-1.3c0-0.8-0.6-1.3-1.8-1.3h-1.7V67.4z"/>
		<path fill="#455560" d="M51.1,63.6v1.2h-2.3v7.4h-1.6v-7.4H45v-1.2H51.1z"/>
		<path fill="#455560" d="M70.5,65.9c-0.3-0.9-1-1.3-1.9-1.3c-1,0-1.6,0.5-1.6,1.2c0,0.8,0.8,1,2.2,1.3c0.8,0.2,1.5,0.4,2.2,0.9
			c0.5,0.4,0.8,1,0.8,1.7c0,1.5-1.3,2.6-3.5,2.6c-1.8,0-3.2-1-3.6-2.6l1.5-0.3c0.3,1,1.1,1.6,2.3,1.6c1,0,1.7-0.6,1.7-1.2
			c0-0.9-0.7-1.1-2.1-1.5c-0.9-0.2-1.7-0.4-2.4-1c-0.4-0.4-0.6-0.9-0.6-1.5c0-1.5,1.3-2.6,3.3-2.6c1.6,0,2.8,0.8,3.3,2.2L70.5,65.9z
			"/>
		<path fill="#455560" d="M82.1,63.6v1.2h-4.4v2.3h3.5v1.2h-3.5V71h4.5v1.3h-6v-8.6H82.1z"/>
		<path fill="#455560" d="M89.7,63.6l2.9,8.6h-1.6l-0.7-2.3h-3l-0.7,2.3H85l2.9-8.6H89.7z M87.5,68.8h2.3l-1.2-3.7L87.5,68.8z"/>
		<path fill="#455560" d="M99.5,63.6c2.2,0,3.3,0.8,3.3,2.5c0,1.1-0.5,1.9-1.6,2.2l1.7,3.9h-1.7l-1.6-3.6h-2v3.6H96v-8.6H99.5z
			 M97.6,67.4h1.7c1.2,0,1.8-0.5,1.8-1.3c0-0.8-0.6-1.3-1.8-1.3h-1.7V67.4z"/>
		<path fill="#455560" d="M111.9,66.6c-0.2-1.2-0.9-1.9-1.9-1.9c-1.3,0-2.1,1.1-2.1,3.3c0,2.1,0.8,3.2,2.1,3.2c1,0,1.6-0.6,1.9-1.9
			l1.5,0.2c-0.4,1.9-1.6,3-3.4,3c-2.3,0-3.8-1.7-3.8-4.5c0-2.8,1.5-4.5,3.8-4.5c1.8,0,3,1.1,3.4,3L111.9,66.6z"/>
		<path fill="#455560" d="M118.8,63.6v3.5h3.5v-3.5h1.6v8.6h-1.6v-3.9h-3.5v3.9h-1.6v-8.6H118.8z"/>
		<path fill="#455560" d="M139.6,72.4c-1.8,0-3.1-1.1-3.1-2.6c0-1.2,0.8-2.1,2.2-2.6c-0.5-0.7-0.8-1.3-0.8-1.9
			c0-1.1,0.9-1.9,2.2-1.9c1.4,0,2.3,0.8,2.3,1.9c0,0.9-0.7,1.7-1.9,2.2l1.5,2.2c0.5-0.6,0.9-1.4,1.1-2.3l1.4,0.2
			c-0.3,1.1-0.8,2.1-1.6,3c0.2,0.3,0.5,0.4,1,0.4c0.2,0,0.5,0,0.7-0.1l0,1.2c-0.4,0.1-0.7,0.1-0.9,0.1c-0.7,0-1.3-0.3-1.8-0.8
			C141.3,72.1,140.5,72.4,139.6,72.4z M139.4,68c-0.9,0.3-1.3,0.9-1.3,1.7c0,0.9,0.7,1.5,1.7,1.5c0.3,0,0.6-0.1,0.8-0.1
			c0.2-0.1,0.5-0.2,0.7-0.4L139.4,68z M141.3,65.4c0-0.5-0.4-1-1-1c-0.5,0-0.9,0.4-0.9,0.9c0,0.4,0.2,0.8,0.7,1.4
			C140.9,66.4,141.3,65.9,141.3,65.4z"/>
		<path fill="#455560" d="M159.2,63.6l2.3,6.4l2.2-6.4h2.2v8.6h-1.5l0-7.2l-2.5,7.2h-1.1l-2.5-7.3l0,7.3H157v-8.6H159.2z"/>
		<path fill="#455560" d="M174,63.6l2.9,8.6h-1.6l-0.7-2.3h-3l-0.7,2.3h-1.4l2.9-8.6H174z M171.8,68.8h2.3l-1.2-3.7L171.8,68.8z"/>
		<path fill="#455560" d="M185,63.6v1.2h-2.3v7.4h-1.6v-7.4h-2.2v-1.2H185z"/>
		<path fill="#455560" d="M193.4,66.6c-0.2-1.2-0.9-1.9-1.8-1.9c-1.3,0-2.1,1.1-2.1,3.3c0,2.1,0.8,3.2,2.1,3.2c1,0,1.6-0.6,1.9-1.9
			l1.5,0.2c-0.4,1.9-1.6,3-3.4,3c-2.3,0-3.8-1.7-3.8-4.5c0-2.8,1.5-4.5,3.8-4.5c1.8,0,3,1.1,3.4,3L193.4,66.6z"/>
		<path fill="#455560" d="M200.3,63.6v3.5h3.5v-3.5h1.6v8.6h-1.6v-3.9h-3.5v3.9h-1.6v-8.6H200.3z"/>
	</g>
</g>
</svg>
